{"title":"The A-Team 2010 TS XViD - IMAGiNE -FASTSEED[Filemegatorrents]","uid":5622348,"size":1489236571,"categoryP":"video","categoryS":"movies","magnet":"?xt=urn:btih:07b67a0bbf3c47cebe04e4a136438d8003c2b194&amp;dn=The+A-Team+2010+TS+XViD+-+IMAGiNE+-FASTSEED%5BFilemegatorrents%5D&amp;tr=udp%3A%2F%2Ftracker.openbittorrent.com%3A80&amp;tr=udp%3A%2F%2Fopen.demonii.com%3A1337&amp;tr=udp%3A%2F%2Ftracker.coppersurfer.tk%3A6969&amp;tr=udp%3A%2F%2Fexodus.desync.com%3A6969","seeders":0,"leechers":0,"uploader":"DibyaTPB","files":102,"time":1276331445,"description":"...................................NFO:....................................\n\n.      *********** ****    ****      ***      ******** *********** ****    *** **********\n           *+*     +*+*+* *+*+*+   *+* *+*   *+*    *+*    *+*     *+*+*   *+* *+*        \n           +*+     +*+ +*+*+ +*+  +*+   +*+  +*+           +*+     *+*+*+  +*+ +*+        \n           +$+     +$+  +*+  +$+ +$++*++$++* *$*           +$+     +$+ +*+ +$+ +$++*++$  \n           +$+     +$+       +$+ +$+     +$+ +$+   +$+$    +$+     +$+  +$+$+$ +$+        \n           $+$     $+$       $+$ $+$     $+$ $+$    $+$    $+$     $+$   $+$+$ $+$        \n       $$$$$$$$$$$ $$$       $$$ $$$     $$$  $$$$$$$$ $$$$$$$$$$$ $$$    $$$$ $$$$$$$$$$     \n                                                \n\n\n\n                           Another Fine Release Brought to you from - IMAGiNE                   \n                                                 \n\n********************************************************************************************************************                                \n                               The A Team 2010 TS XViD - IMAGiNE\n********************************************************************************************************************\n\nRipper ...........:IMAGiNE                                      IMDB Rating.......:7.2/10                             \nVideo Codec.......:XVID                                         Release Date......:06/11/10\nAudio Codec.......:MP3                                          Theatre Date......:06/11/10\nAudio Bitrate.....:128                                          Runtime...........:1h 47mn\nSubtitles.........:NIL                                          Language..........:ENGLISH\nResolution........:704 x 304                                    IMDb URL..........:http://www.imdb.com/title/tt0429493/\n\n\n[color=yellow]DETAILS:[/color]\n\nVideo\nFormat                           : MPEG-4 Visual\nFormat profile                   : Streaming Video@L1\nFormat settings, BVOP            : Yes\nFormat settings, QPel            : No\nFormat settings, GMC             : No warppoints\nFormat settings, Matrix          : Default\nCodec ID                         : XVID\nCodec ID/Hint                    : XviD\nDuration                         : 1h 47mn\nBit rate                         : 1 687 Kbps\nWidth                            : 704 pixels\nHeight                           : 304 pixels\nDisplay aspect ratio             : 2.35\nFrame rate                       : 25.000 fps\nResolution                       : 24 bits\nColorimetry                      : 4:2:0\nScan type                        : Progressive\nBits/(Pixel*Frame)               : 0.315\nStream size                      : 1.27 GiB (92%)\nWriting library                  : XviD 50\n\nAudio\nFormat                           : MPEG Audio\nFormat version                   : Version 1\nFormat profile                   : Layer 3\nCodec ID                         : 55\nCodec ID/Hint                    : MP3\nDuration                         : 1h 47mn\nBit rate mode                    : Constant\nBit rate                         : 128 Kbps\nMinimum bit rate                 : 128 Kbps\nChannel(s)                       : 2 channels\nSampling rate                    : 44.1 KHz\nResolution                       : 16 bits\nStream size                      : 98.5 MiB (7%)\nAlignment                        : Split accross interleaves\nInterleave, duration             : 40 ms (1.00 video frame)\nInterleave, preload duration     : 500 ms\n\n\n[color=yellow]NOTES:[/color]\n\nIMAGiNE bringing you another release.....The A Team 2010\n\nRight first off thanks to the sources on this... We used the video from \nrelizlab and some NICE LINE AUDIO","torrent":{"xt":"urn:btih:07b67a0bbf3c47cebe04e4a136438d8003c2b194","amp;dn":"The+A-Team+2010+TS+XViD+-+IMAGiNE+-FASTSEED%5BFilemegatorrents%5D","amp;tr":["udp%3A%2F%2Ftracker.openbittorrent.com%3A80","udp%3A%2F%2Fopen.demonii.com%3A1337","udp%3A%2F%2Ftracker.coppersurfer.tk%3A6969","udp%3A%2F%2Fexodus.desync.com%3A6969"],"infoHash":"07b67a0bbf3c47cebe04e4a136438d8003c2b194","infoHashBuffer":{"type":"Buffer","data":[7,182,122,11,191,60,71,206,190,4,228,161,54,67,141,128,3,194,177,148]},"announce":[],"urlList":[]}}